{"title":"Monty.Python.and.the.Holy.Grail.1974.720p.BluRay.X264-AMIABLE","uid":7057160,"size":4739934149,"categoryP":"video","categoryS":"hd___movies","magnet":"?xt=urn:btih:129da0fe0dd28ebefc9a8f465215d544fafde45d&amp;dn=Monty.Python.and.the.Holy.Grail.1974.720p.BluRay.X264-AMIABLE&amp;tr=udp%3A%2F%2Ftracker.openbittorrent.com%3A80&amp;tr=udp%3A%2F%2Fopen.demonii.com%3A1337&amp;tr=udp%3A%2F%2Ftracker.coppersurfer.tk%3A6969&amp;tr=udp%3A%2F%2Fexodus.desync.com%3A6969","seeders":3,"leechers":4,"uploader":"mfccorrea","files":3,"time":1330131058,"description":"The movie starts out with Arthur, King of the Britons, looking for knights to sit with him at Camelot. He finds many knights including Sir Galahad the pure, Sir Lancelot the brave, the quiet Sir Bedevere, and Sir Robin the Not-Quite-So-Brave-as-Sir Lancelot. They do not travel on horses, but pretend they do and have their servants bang coconuts to make the sound of horse's hooves. Through satire of certain events in history (witch trials, the black plague) they find Camelot, but after literally a quick song and dance they decide that they do not want to go there. While walking away, God (who seems to be grumpy) come to them from a cloud and tells them to find the Holy Grail. They agree and begin their search. While they search for the Grail, scenes of the knight's tales appear and why they have the name they have. Throughout their search they meet interesting people and knights along the way\n\n\n   General\n      Complete name :Monty.Python.and.the.Holy.Grail.1974.720p.BluRay.X264-AMIABLE.mkv\n      Format : Matroska\n      File size : 4.37 GiB\n      Duration : 1h 32mn\n      Overall bit rate : 6 793 Kbps\n      Writing application : x264.exe\n      Writing library : mkv2rls v1.4 (date: 2011 mar 29)\n   Video #1\n      ID : 1\n      Format : AVC\n      Format/Info : Advanced Video Codec\n      Format profile : &lt;a class=&quot;__cf_email__&quot; href=&quot;/cdn-cgi/l/email-protection&quot; data-cfemail=&quot;1c54757b745c5028322d&quot;&gt;[email&amp;#160;protected]&lt;/a&gt;&lt;script cf-hash='f9e31' type=&quot;text/javascript&quot;&gt;\n/* &lt;![CDATA[ */!function(){try{var t=&quot;currentScript&quot;in document?document.currentScript:function(){for(var t=document.getElementsByTagName(&quot;script&quot;),e=t.length;e--;)if(t[e].getAttribute(&quot;cf-hash&quot;))return t[e]}();if(t&amp;&amp;t.previousSibling){var e,r,n,i,c=t.previousSibling,a=c.getAttribute(&quot;data-cfemail&quot;);if(a){for(e=&quot;&quot;,r=parseInt(a.substr(0,2),16),n=2;a.length-n;n+=2)i=parseInt(a.substr(n,2),16)^r,e+=String.fromCharCode(i);e=document.createTextNode(e),c.parentNode.replaceChild(e,c)}}}catch(u){}}();/* ]]&gt; */&lt;/script&gt;\n      Format settings, CABAC : Yes\n      Format settings, ReFrames : 5 frames\n      Muxing mode : Container profile=&lt;a class=&quot;__cf_email__&quot; href=&quot;/cdn-cgi/l/email-protection&quot; data-cfemail=&quot;c194afaaafaeb6af81f5eff0&quot;&gt;[email&amp;#160;protected]&lt;/a&gt;&lt;script cf-hash='f9e31' type=&quot;text/javascript&quot;&gt;\n/* &lt;![CDATA[ */!function(){try{var t=&quot;currentScript&quot;in document?document.currentScript:function(){for(var t=document.getElementsByTagName(&quot;script&quot;),e=t.length;e--;)if(t[e].getAttribute(&quot;cf-hash&quot;))return t[e]}();if(t&amp;&amp;t.previousSibling){var e,r,n,i,c=t.previousSibling,a=c.getAttribute(&quot;data-cfemail&quot;);if(a){for(e=&quot;&quot;,r=parseInt(a.substr(0,2),16),n=2;a.length-n;n+=2)i=parseInt(a.substr(n,2),16)^r,e+=String.fromCharCode(i);e=document.createTextNode(e),c.parentNode.replaceChild(e,c)}}}catch(u){}}();/* ]]&gt; */&lt;/script&gt;\n      Codec ID : V_MPEG4/ISO/AVC\n      Duration : 1h 32mn\n      Bit rate : 5 148 Kbps\n      Nominal bit rate : 5 282 Kbps\n      Width : 1 200 pixels\n      Height : 720 pixels\n      Display aspect ratio : 1.667\n      Frame rate : 23.976 fps\n      Resolution : 24 bits\n      Colorimetry : 4:2:0\n      Scan type : Progressive\n      Bits/(Pixel*Frame) : 0.249\n      Stream size : 3.31 GiB (76%)\n      Writing library : x264 core 120 r2164 da19765\n   Audio #2\n      ID : 2\n      Format : DTS\n      Format/Info : Digital Theater Systems\n      Codec ID : A_DTS\n      Duration : 1h 32mn\n      Bit rate mode : Constant\n      Bit rate : 1 510 Kbps\n      Channel(s) : 6 channels\n      Channel positions : Front: L C R, Surround: L R, LFE\n      Sampling rate : 48.0 KHz\n      Resolution : 24 bits\n      Stream size : 995 MiB (22%)\n      Language : English\n   Text #3\n      ID : 3\n      Format : UTF-8\n      Codec ID : S_TEXT/UTF8\n      Codec ID/Info : UTF-8 Plain Text\n      Language : English\n &lt;a href=&quot;\nhttp://www.imdb.com/title/tt0071853/&quot; rel=&quot;nofollow&quot; target=&quot;_NEW&quot;&gt;\nhttp://www.imdb.com/title/tt0071853/&lt;/a&gt;\n\nLanguage: English\nSubtitles: English (in mkv), Spanish, French, Chinese, Japanese, Korean, Portuguese and Thai (sub/idx)","torrent":{"xt":"urn:btih:129da0fe0dd28ebefc9a8f465215d544fafde45d","amp;dn":"Monty.Python.and.the.Holy.Grail.1974.720p.BluRay.X264-AMIABLE","amp;tr":["udp%3A%2F%2Ftracker.openbittorrent.com%3A80","udp%3A%2F%2Fopen.demonii.com%3A1337","udp%3A%2F%2Ftracker.coppersurfer.tk%3A6969","udp%3A%2F%2Fexodus.desync.com%3A6969"],"infoHash":"129da0fe0dd28ebefc9a8f465215d544fafde45d","infoHashBuffer":{"type":"Buffer","data":[18,157,160,254,13,210,142,190,252,154,143,70,82,21,213,68,250,253,228,93]},"announce":[],"urlList":[]}}